<svg width="40" height="40" viewBox="0 0 40 40" fill="none" xmlns="http://www.w3.org/2000/svg">
<path d="M14.64 31.3203C16.4 33.2365 18.52 34.5476 20 34.5476C21.64 34.5476 23.7199 33.2971 25.3999 31.4414" stroke="#855FCE" stroke-miterlimit="10" stroke-linecap="round" stroke-linejoin="round"/>
<path d="M14.64 31.3203C16.4 33.2365 18.52 34.5476 20 34.5476C21.64 34.5476 23.7199 33.2971 25.3999 31.4414" stroke="#855FCE" stroke-miterlimit="10" stroke-linecap="round" stroke-linejoin="round"/>
<path d="M28.5001 24.4017C28.5001 19.48 24.7001 16.757 20.0001 16.757C15.3001 16.757 11.5001 19.5002 11.5001 24.4017" stroke="#855FCE" stroke-miterlimit="10" stroke-linecap="round" stroke-linejoin="round"/>
<path d="M28.5001 24.4017C28.5001 19.48 24.7001 16.757 20.0001 16.757C15.3001 16.757 11.5001 19.5002 11.5001 24.4017" stroke="#855FCE" stroke-miterlimit="10" stroke-linecap="round" stroke-linejoin="round"/>
<path d="M28.4199 23.2923C28.4199 23.2923 33.1799 16.757 26.9399 12.2387" stroke="#855FCE" stroke-miterlimit="10" stroke-linecap="round" stroke-linejoin="round"/>
<path d="M28.4199 23.2923C28.4199 23.2923 33.1799 16.757 26.9399 12.2387" stroke="#855FCE" stroke-miterlimit="10" stroke-linecap="round" stroke-linejoin="round"/>
<path d="M11.5801 23.1712C11.5801 23.1712 8.76005 19.016 11.5801 13.8321C14.4001 8.64821 18.6601 7.63969 20.7801 7.45816C22.9001 7.27662 26.5201 7.98258 26.7201 10.9678C26.9201 13.9531 26.4601 16.1316 23.2201 17.3822" stroke="#855FCE" stroke-miterlimit="10" stroke-linecap="round" stroke-linejoin="round"/>
<path d="M11.5801 23.1712C11.5801 23.1712 8.76005 19.016 11.5801 13.8321C14.4001 8.64821 18.6601 7.63969 20.7801 7.45816C22.9001 7.27662 26.5201 7.98258 26.7201 10.9678C26.9201 13.9531 26.4601 16.1316 23.2201 17.3822" stroke="#855FCE" stroke-miterlimit="10" stroke-linecap="round" stroke-linejoin="round"/>
<path d="M11.7201 13.5901C11.7201 13.5901 9.54009 9.09207 14.8601 5.50168C20.1801 1.91128 24.8801 5.56218 24.6201 8.10369" stroke="#855FCE" stroke-miterlimit="10" stroke-linecap="round" stroke-linejoin="round"/>
<path d="M11.7201 13.5901C11.7201 13.5901 9.54009 9.09207 14.8601 5.50168C20.1801 1.91128 24.8801 5.56218 24.6201 8.10369" stroke="#855FCE" stroke-miterlimit="10" stroke-linecap="round" stroke-linejoin="round"/>
<path d="M21.6 12.8439C21.6 12.8439 15.9 10.8671 11.28 14.4373" stroke="#855FCE" stroke-miterlimit="10" stroke-linecap="round" stroke-linejoin="round"/>
<path d="M21.6 12.8439C21.6 12.8439 15.9 10.8671 11.28 14.4373" stroke="#855FCE" stroke-miterlimit="10" stroke-linecap="round" stroke-linejoin="round"/>
<path d="M16.1799 35.5561V32.7725" stroke="#855FCE" stroke-miterlimit="10" stroke-linecap="round" stroke-linejoin="round"/>
<path d="M16.1799 35.5561V32.7725" stroke="#855FCE" stroke-miterlimit="10" stroke-linecap="round" stroke-linejoin="round"/>
<path d="M23.8401 32.7725V35.5561" stroke="#855FCE" stroke-miterlimit="10" stroke-linecap="round" stroke-linejoin="round"/>
<path d="M23.8401 32.7725V35.5561" stroke="#855FCE" stroke-miterlimit="10" stroke-linecap="round" stroke-linejoin="round"/>
<path d="M2 18.0681L3.2 30.9774C3.2 30.9774 3.8 35.0922 8.08 36.7059C12.36 38.3196 13.2 38.0775 13.88 37.7951C14.56 37.5127 15.18 36.0806 13.68 35.6167C12.18 35.1527 9.2 32.2078 8.72 31.7035C8.22 31.1993 8.08 28.5367 8.72 28.3149C9.36 28.093 11.54 29.5453 12.88 29.2024C14.2 28.8393 14.3 28.0325 13.54 27.4677C12.78 26.9029 9.81999 25.3296 9.31999 25.3094C8.83999 25.2892 7.5 25.4909 7.5 25.4909L6.8 17.9471" stroke="#855FCE" stroke-miterlimit="10" stroke-linecap="round" stroke-linejoin="round"/>
<path d="M2 18.0681L3.2 30.9774C3.2 30.9774 3.8 35.0922 8.08 36.7059C12.36 38.3196 13.2 38.0775 13.88 37.7951C14.56 37.5127 15.18 36.0806 13.68 35.6167C12.18 35.1527 9.2 32.2078 8.72 31.7035C8.22 31.1993 8.08 28.5367 8.72 28.3149C9.36 28.093 11.54 29.5453 12.88 29.2024C14.2 28.8393 14.3 28.0325 13.54 27.4677C12.78 26.9029 9.81999 25.3296 9.31999 25.3094C8.83999 25.2892 7.5 25.4909 7.5 25.4909L6.8 17.9471" stroke="#855FCE" stroke-miterlimit="10" stroke-linecap="round" stroke-linejoin="round"/>
<path d="M37.9999 18.0681L36.7999 30.9774C36.7999 30.9774 36.1999 35.0922 31.9199 36.7059C27.6399 38.3196 26.7999 38.0775 26.1199 37.7951C25.4399 37.5127 24.8199 36.0806 26.3199 35.6167C27.8199 35.1527 30.7999 32.2078 31.2799 31.7035C31.7799 31.1993 31.9199 28.5367 31.2799 28.3149C30.6399 28.093 28.4599 29.5453 27.1199 29.2024C25.7799 28.8595 25.6999 28.0325 26.4599 27.4677C27.2199 26.9029 30.1799 25.3296 30.6799 25.3094C31.1599 25.2892 32.4999 25.4909 32.4999 25.4909L33.1999 17.9471" stroke="#855FCE" stroke-miterlimit="10" stroke-linecap="round" stroke-linejoin="round"/>
<path d="M37.9999 18.0681L36.7999 30.9774C36.7999 30.9774 36.1999 35.0922 31.9199 36.7059C27.6399 38.3196 26.7999 38.0775 26.1199 37.7951C25.4399 37.5127 24.8199 36.0806 26.3199 35.6167C27.8199 35.1527 30.7999 32.2078 31.2799 31.7035C31.7799 31.1993 31.9199 28.5367 31.2799 28.3149C30.6399 28.093 28.4599 29.5453 27.1199 29.2024C25.7799 28.8595 25.6999 28.0325 26.4599 27.4677C27.2199 26.9029 30.1799 25.3296 30.6799 25.3094C31.1599 25.2892 32.4999 25.4909 32.4999 25.4909L33.1999 17.9471" stroke="#855FCE" stroke-miterlimit="10" stroke-linecap="round" stroke-linejoin="round"/>
</svg>
