<svg width="40" height="40" viewBox="0 0 40 40" fill="none" xmlns="http://www.w3.org/2000/svg">
<path d="M13.6143 35.6472V39H27.3675V33.6965" fill="#2F80ED"/>
<path d="M13.6143 35.6472V39H27.3675V33.6965" fill="#2F80ED" fill-opacity="0.2"/>
<path d="M13.6143 35.6472V39H27.3675V33.6965" stroke="#2F80ED" stroke-miterlimit="10" stroke-linecap="round" stroke-linejoin="round"/>
<path d="M13.6144 35.6472H16.0132V32.5179H18.9517V29.4903H22.2301V24.6947H19.8913V21.7077H17.0527V13.8642H19.8913V9.39382H16.333V8.43877C16.333 8.17462 16.493 7.9511 16.7329 7.86982C18.472 7.30086 20.7709 6.83351 23.4295 7.05703C25.0088 7.17895 27.2676 7.36184 29.6465 8.8452C30.546 9.41416 33.0048 10.9991 34.1642 14.2097C34.644 15.5711 34.7639 16.8106 34.7639 17.725C34.7639 18.2127 34.8839 18.68 35.1438 19.0864C35.8434 20.2244 37.2427 22.5205 37.9024 23.5975C38.1023 23.9226 37.9823 24.329 37.6625 24.5119L35.3037 25.8327C34.9638 26.0156 34.7639 26.4016 34.8039 26.7877C34.9638 28.2914 34.8439 29.4903 34.724 30.3031C34.5441 31.4816 34.4041 32.2538 33.8444 32.9853C32.7649 34.3874 30.9858 34.5499 30.506 34.5906C27.7874 34.8344 27.6874 34.0216 27.3676 33.6965" fill="#2F80ED"/>
<path d="M13.6144 35.6472H16.0132V32.5179H18.9517V29.4903H22.2301V24.6947H19.8913V21.7077H17.0527V13.8642H19.8913V9.39382H16.333V8.43877C16.333 8.17462 16.493 7.9511 16.7329 7.86982C18.472 7.30086 20.7709 6.83351 23.4295 7.05703C25.0088 7.17895 27.2676 7.36184 29.6465 8.8452C30.546 9.41416 33.0048 10.9991 34.1642 14.2097C34.644 15.5711 34.7639 16.8106 34.7639 17.725C34.7639 18.2127 34.8839 18.68 35.1438 19.0864C35.8434 20.2244 37.2427 22.5205 37.9024 23.5975C38.1023 23.9226 37.9823 24.329 37.6625 24.5119L35.3037 25.8327C34.9638 26.0156 34.7639 26.4016 34.8039 26.7877C34.9638 28.2914 34.8439 29.4903 34.724 30.3031C34.5441 31.4816 34.4041 32.2538 33.8444 32.9853C32.7649 34.3874 30.9858 34.5499 30.506 34.5906C27.7874 34.8344 27.6874 34.0216 27.3676 33.6965" fill="#2F80ED" fill-opacity="0.2"/>
<path d="M13.6144 35.6472H16.0132V32.5179H18.9517V29.4903H22.2301V24.6947H19.8913V21.7077H17.0527V13.8642H19.8913V9.39382H16.333V8.43877C16.333 8.17462 16.493 7.9511 16.7329 7.86982C18.472 7.30086 20.7709 6.83351 23.4295 7.05703C25.0088 7.17895 27.2676 7.36184 29.6465 8.8452C30.546 9.41416 33.0048 10.9991 34.1642 14.2097C34.644 15.5711 34.7639 16.8106 34.7639 17.725C34.7639 18.2127 34.8839 18.68 35.1438 19.0864C35.8434 20.2244 37.2427 22.5205 37.9024 23.5975C38.1023 23.9226 37.9823 24.329 37.6625 24.5119L35.3037 25.8327C34.9638 26.0156 34.7639 26.4016 34.8039 26.7877C34.9638 28.2914 34.8439 29.4903 34.724 30.3031C34.5441 31.4816 34.4041 32.2538 33.8444 32.9853C32.7649 34.3874 30.9858 34.5499 30.506 34.5906C27.7874 34.8344 27.6874 34.0216 27.3676 33.6965" stroke="#2F80ED" stroke-miterlimit="10" stroke-linecap="round"/>
<path d="M13.7143 7.91046H10.8157V10.8568H13.7143V7.91046Z" fill="#2F80ED"/>
<path d="M13.7143 7.91046H10.8157V10.8568H13.7143V7.91046Z" fill="#2F80ED" fill-opacity="0.2"/>
<path d="M8.41684 10.8569H5.51828V13.8033H8.41684V10.8569Z" fill="#2F80ED"/>
<path d="M8.41684 10.8569H5.51828V13.8033H8.41684V10.8569Z" fill="#2F80ED" fill-opacity="0.2"/>
<path d="M13.5144 13.3563H10.6158V16.3027H13.5144V13.3563Z" fill="#2F80ED"/>
<path d="M13.5144 13.3563H10.6158V16.3027H13.5144V13.3563Z" fill="#2F80ED" fill-opacity="0.2"/>
<path d="M13.5144 19.2694H10.6158V22.2158H13.5144V19.2694Z" fill="#2F80ED"/>
<path d="M13.5144 19.2694H10.6158V22.2158H13.5144V19.2694Z" fill="#2F80ED" fill-opacity="0.2"/>
<path d="M10.6158 16.3027H7.71722V19.2491H10.6158V16.3027Z" fill="#2F80ED"/>
<path d="M10.6158 16.3027H7.71722V19.2491H10.6158V16.3027Z" fill="#2F80ED" fill-opacity="0.2"/>
<path d="M4.89856 15.6931H2V18.6395H4.89856V15.6931Z" fill="#2F80ED"/>
<path d="M4.89856 15.6931H2V18.6395H4.89856V15.6931Z" fill="#2F80ED" fill-opacity="0.2"/>
<path d="M7.29735 21.0372H4.39877V23.9836H7.29735V21.0372Z" fill="#2F80ED"/>
<path d="M7.29735 21.0372H4.39877V23.9836H7.29735V21.0372Z" fill="#2F80ED" fill-opacity="0.2"/>
<path d="M28.8067 11.8729H25.9082V14.8193H28.8067V11.8729Z" fill="#2F80ED"/>
<path d="M28.8067 11.8729H25.9082V14.8193H28.8067V11.8729Z" fill="#2F80ED" fill-opacity="0.2"/>
<path d="M23.6093 14.8396H20.7107V17.786H23.6093V14.8396Z" fill="#2F80ED"/>
<path d="M23.6093 14.8396H20.7107V17.786H23.6093V14.8396Z" fill="#2F80ED" fill-opacity="0.2"/>
<path d="M26.5278 17.786H23.6293V20.7324H26.5278V17.786Z" fill="#2F80ED"/>
<path d="M26.5278 17.786H23.6293V20.7324H26.5278V17.786Z" fill="#2F80ED" fill-opacity="0.2"/>
<path d="M25.0685 31.8677H22.1699V34.8141H25.0685V31.8677Z" fill="#2F80ED"/>
<path d="M25.0685 31.8677H22.1699V34.8141H25.0685V31.8677Z" fill="#2F80ED" fill-opacity="0.2"/>
<path d="M5.31842 32.457H2.41986V35.4034H5.31842V32.457Z" fill="#2F80ED"/>
<path d="M5.31842 32.457H2.41986V35.4034H5.31842V32.457Z" fill="#2F80ED" fill-opacity="0.2"/>
<path d="M9.8561 28.7181H6.95752V31.6645H9.8561V28.7181Z" fill="#2F80ED"/>
<path d="M9.8561 28.7181H6.95752V31.6645H9.8561V28.7181Z" fill="#2F80ED" fill-opacity="0.2"/>
<path d="M16.3529 28.2509H13.4543V31.1973H16.3529V28.2509Z" fill="#2F80ED"/>
<path d="M16.3529 28.2509H13.4543V31.1973H16.3529V28.2509Z" fill="#2F80ED" fill-opacity="0.2"/>
<path d="M19.2515 25.3044H16.353V28.2508H19.2515V25.3044Z" fill="#2F80ED"/>
<path d="M19.2515 25.3044H16.353V28.2508H19.2515V25.3044Z" fill="#2F80ED" fill-opacity="0.2"/>
<path d="M12.9146 23.9835H10.0161V26.9299H12.9146V23.9835Z" fill="#2F80ED"/>
<path d="M12.9146 23.9835H10.0161V26.9299H12.9146V23.9835Z" fill="#2F80ED" fill-opacity="0.2"/>
<path d="M16.413 16.3027H13.5144V19.2491H16.413V16.3027Z" fill="#2F80ED"/>
<path d="M16.413 16.3027H13.5144V19.2491H16.413V16.3027Z" fill="#2F80ED" fill-opacity="0.2"/>
</svg>
