<svg width="40" height="40" viewBox="0 0 40 40" fill="none" xmlns="http://www.w3.org/2000/svg">
<g clip-path="url(#clip0_2_288)">
<path d="M21.1468 18.8144C21.1468 15.2602 18.3004 13.2659 14.7878 13.2659C11.2751 13.2659 8.42871 15.2602 8.42871 18.8144C8.42871 22.3686 12.5873 26.1597 14.7878 26.1597C16.0192 26.1597 17.5736 25.2514 18.8253 23.9087" stroke="#27AE60" stroke-miterlimit="10" stroke-linecap="round" stroke-linejoin="round"/>
<path d="M21.1468 18.8144C21.1468 15.2602 18.3004 13.2659 14.7878 13.2659C11.2751 13.2659 8.42871 15.2602 8.42871 18.8144C8.42871 22.3686 12.5873 26.1597 14.7878 26.1597C16.0192 26.1597 17.5736 25.2514 18.8253 23.9087" stroke="#27AE60" stroke-miterlimit="10" stroke-linecap="round" stroke-linejoin="round"/>
<path d="M21.1065 18.0049C21.1065 18.0049 24.6595 13.266 19.9962 9.98822" stroke="#27AE60" stroke-miterlimit="10" stroke-linecap="round" stroke-linejoin="round"/>
<path d="M21.1065 18.0049C21.1065 18.0049 24.6595 13.266 19.9962 9.98822" stroke="#27AE60" stroke-miterlimit="10" stroke-linecap="round" stroke-linejoin="round"/>
<path d="M8.48929 17.9259C8.48929 17.9259 6.38979 14.9048 8.48929 11.1532C10.5888 7.3818 13.7784 6.67097 15.3732 6.53276C16.9681 6.39454 19.6732 6.90791 19.8145 9.07991C19.976 11.2519 19.6126 12.8315 17.1901 13.7398" stroke="#27AE60" stroke-miterlimit="10" stroke-linecap="round" stroke-linejoin="round"/>
<path d="M8.48929 17.9259C8.48929 17.9259 6.38979 14.9048 8.48929 11.1532C10.5888 7.3818 13.7784 6.67097 15.3732 6.53276C16.9681 6.39454 19.6732 6.90791 19.8145 9.07991C19.976 11.2519 19.6126 12.8315 17.1901 13.7398" stroke="#27AE60" stroke-miterlimit="10" stroke-linecap="round" stroke-linejoin="round"/>
<path d="M8.61032 10.9557C8.61032 10.9557 6.97513 7.69771 10.9723 5.09131C14.9492 2.48491 18.4618 5.13082 18.2599 6.96715" stroke="#27AE60" stroke-miterlimit="10" stroke-linecap="round" stroke-linejoin="round"/>
<path d="M8.61032 10.9557C8.61032 10.9557 6.97513 7.69771 10.9723 5.09131C14.9492 2.48491 18.4618 5.13082 18.2599 6.96715" stroke="#27AE60" stroke-miterlimit="10" stroke-linecap="round" stroke-linejoin="round"/>
<path d="M15.9788 10.4225C15.9788 10.4225 11.7192 9.00085 8.26718 11.5875" stroke="#27AE60" stroke-miterlimit="10" stroke-linecap="round" stroke-linejoin="round"/>
<path d="M15.9788 10.4225C15.9788 10.4225 11.7192 9.00085 8.26718 11.5875" stroke="#27AE60" stroke-miterlimit="10" stroke-linecap="round" stroke-linejoin="round"/>
<path d="M17.6746 24.8763V26.8903C17.6746 26.8903 23.8924 27.6801 24.821 30.5235C25.7496 33.3668 25.6083 35.9732 25.6083 37H14.8282H14.7878H4.00769C4.00769 35.9732 3.86638 33.3668 4.79501 30.5235C5.72363 27.6801 11.9414 26.8903 11.9414 26.8903V24.8763" stroke="#27AE60" stroke-miterlimit="10" stroke-linecap="round" stroke-linejoin="round"/>
<path d="M17.6746 24.8763V26.8903C17.6746 26.8903 23.8924 27.6801 24.821 30.5235C25.7496 33.3668 25.6083 35.9732 25.6083 37H14.8282H14.7878H4.00769C4.00769 35.9732 3.86638 33.3668 4.79501 30.5235C5.72363 27.6801 11.9414 26.8903 11.9414 26.8903V24.8763" stroke="#27AE60" stroke-miterlimit="10" stroke-linecap="round" stroke-linejoin="round"/>
<path d="M35.2375 31.5896C34.4704 32.6559 32.9563 32.9126 31.8864 32.1623L23.0241 26.0807C21.934 25.3303 21.6715 23.8494 22.4387 22.8029C23.2058 21.7366 24.7198 21.48 25.7898 22.2303L34.6521 28.3119C35.722 29.0622 35.9845 30.5234 35.2375 31.5896Z" stroke="#27AE60" stroke-miterlimit="10" stroke-linecap="round" stroke-linejoin="round"/>
<path d="M35.2375 31.5896C34.4704 32.6559 32.9563 32.9126 31.8864 32.1623L23.0241 26.0807C21.934 25.3303 21.6715 23.8494 22.4387 22.8029C23.2058 21.7366 24.7198 21.48 25.7898 22.2303L34.6521 28.3119C35.722 29.0622 35.9845 30.5234 35.2375 31.5896Z" stroke="#27AE60" stroke-miterlimit="10" stroke-linecap="round" stroke-linejoin="round"/>
<path d="M22.4388 22.7832L18.8656 20.3347" stroke="#27AE60" stroke-miterlimit="10" stroke-linecap="round" stroke-linejoin="round"/>
<path d="M22.4388 22.7832L18.8656 20.3347" stroke="#27AE60" stroke-miterlimit="10" stroke-linecap="round" stroke-linejoin="round"/>
<path d="M35.9853 30.5318L34.4879 32.6156L36.767 34.1824L38.2644 32.0985L35.9853 30.5318Z" stroke="#27AE60" stroke-miterlimit="10" stroke-linecap="round" stroke-linejoin="round"/>
<path d="M35.9853 30.5318L34.4879 32.6156L36.767 34.1824L38.2644 32.0985L35.9853 30.5318Z" stroke="#27AE60" stroke-miterlimit="10" stroke-linecap="round" stroke-linejoin="round"/>
<path d="M39.3168 34.4156C40.2463 33.122 40.5932 31.7937 40.0916 31.4488C39.5899 31.104 38.4297 31.8731 37.5001 33.1667C36.5705 34.4603 36.2236 35.7885 36.7253 36.1334C37.227 36.4783 38.3872 35.7092 39.3168 34.4156Z" stroke="#27AE60" stroke-miterlimit="10" stroke-linecap="round" stroke-linejoin="round"/>
<path d="M39.3168 34.4156C40.2463 33.122 40.5932 31.7937 40.0916 31.4488C39.5899 31.104 38.4297 31.8731 37.5001 33.1667C36.5705 34.4603 36.2236 35.7885 36.7253 36.1334C37.227 36.4783 38.3872 35.7092 39.3168 34.4156Z" stroke="#27AE60" stroke-miterlimit="10" stroke-linecap="round" stroke-linejoin="round"/>
<path d="M31.3818 31.8266L32.0278 30.9183" stroke="#27AE60" stroke-miterlimit="10" stroke-linecap="round" stroke-linejoin="round"/>
<path d="M31.3818 31.8266L32.0278 30.9183" stroke="#27AE60" stroke-miterlimit="10" stroke-linecap="round" stroke-linejoin="round"/>
<path d="M24.6594 27.2062L25.3055 26.2979" stroke="#27AE60" stroke-miterlimit="10" stroke-linecap="round" stroke-linejoin="round"/>
<path d="M24.6594 27.2062L25.3055 26.2979" stroke="#27AE60" stroke-miterlimit="10" stroke-linecap="round" stroke-linejoin="round"/>
<path d="M27.7683 29.3386L28.4143 28.4303" stroke="#27AE60" stroke-miterlimit="10" stroke-linecap="round" stroke-linejoin="round"/>
<path d="M27.7683 29.3386L28.4143 28.4303" stroke="#27AE60" stroke-miterlimit="10" stroke-linecap="round" stroke-linejoin="round"/>
<path d="M29.565 30.5826L31.0992 28.4698" stroke="#27AE60" stroke-miterlimit="10" stroke-linecap="round" stroke-linejoin="round"/>
<path d="M29.565 30.5826L31.0992 28.4698" stroke="#27AE60" stroke-miterlimit="10" stroke-linecap="round" stroke-linejoin="round"/>
<path d="M26.2138 28.2724L27.7279 26.1597" stroke="#27AE60" stroke-miterlimit="10" stroke-linecap="round" stroke-linejoin="round"/>
<path d="M26.2138 28.2724L27.7279 26.1597" stroke="#27AE60" stroke-miterlimit="10" stroke-linecap="round" stroke-linejoin="round"/>
</g>
<defs>
<clipPath id="clip0_2_288">
<rect width="40" height="40" fill="white"/>
</clipPath>
</defs>
</svg>
